<svg 
 xmlns="http://www.w3.org/2000/svg"
 xmlns:xlink="http://www.w3.org/1999/xlink"
 width="99px" height="53px">
<path fill-rule="evenodd"  stroke="rgb(0, 0, 0)" stroke-width="0px" stroke-linecap="round" stroke-linejoin="round" fill="rgb(185, 185, 185)"
 d="M94.500,30.1000 L4.500,30.1000 C2.015,30.1000 0.000,28.985 0.000,26.500 C0.000,24.015 2.015,22.000 4.500,22.000 L94.500,22.000 C96.985,22.000 98.1000,24.015 98.1000,26.500 C98.1000,28.985 96.985,30.1000 94.500,30.1000 ZM94.500,8.1000 L4.500,8.1000 C2.015,8.1000 0.000,6.985 0.000,4.500 C0.000,2.015 2.015,0.000 4.500,0.000 L94.500,0.000 C96.985,0.000 98.1000,2.015 98.1000,4.500 C98.1000,6.985 96.985,8.1000 94.500,8.1000 ZM4.500,44.000 L94.500,44.000 C96.985,44.000 98.1000,46.015 98.1000,48.500 C98.1000,50.985 96.985,52.1000 94.500,52.1000 L4.500,52.1000 C2.015,52.1000 0.000,50.985 0.000,48.500 C0.000,46.015 2.015,44.000 4.500,44.000 Z"/>
</svg>